<?xml version="1.0" encoding="UTF-8"?>
<!-- Vectorized from /home/xn3/Downloads/ChatGPT Image May 6, 2026, 11_36_01 PM.png with Potrace 1.16. -->
<svg xmlns="http://www.w3.org/2000/svg" width="1024" height="1024" viewBox="0 0 1024 1024" role="img" aria-label="Kessai logo">
  <rect width="1024" height="1024" fill="#000000" />
  <g transform="translate(0 1024) scale(0.1 -0.1)" fill="#ffffff">
    <path d="M4400 9269 c-887 -38 -1439 -199 -1930 -563 -206 -153 -471 -449 -614 -684 -208 -344 -355 -814 -420 -1344 -23 -184 -25 -181 46 -86 80 106 305 337 428 440 446 373 996 570 1725 617 278 19 716 22 1445 13 724 -10 725 -10 846 -36 580 -123 1081 -514 1287 -1004 146 -344 166 -561 148 -1607 -6 -368 -16 -719 -21 -780 -30 -326 -99 -691 -179 -950 -176 -562 -559 -1082 -1062 -1441 -52 -37 -98 -71 -104 -77 -7 -6 75 -7 235 -4 725 17 1334 207 1765 551 112 90 307 288 400 409 241 310 425 737 505 1173 81 437 123 1311 101 2079 -13 442 -22 584 -57 865 -40 325 -97 559 -200 824 -252 646 -771 1152 -1436 1399 -346 129 -626 178 -1198 207 -228 12 -1426 11 -1710 -1z" />
    <path d="M3220 7031 c-449 -93 -835 -304 -1165 -637 -308 -311 -489 -659 -569 -1098 -41 -223 -49 -342 -43 -669 5 -313 17 -427 77 -752 91 -486 258 -864 525 -1185 404 -485 958 -786 1640 -890 198 -31 613 -39 810 -16 601 70 1111 306 1504 696 256 255 502 634 629 970 40 105 74 211 69 216 -1 1 -45 -16 -97 -38 -311 -130 -756 -238 -1105 -268 -157 -13 -638 -13 -785 1 -378 34 -700 156 -982 370 -216 165 -349 330 -478 594 -133 270 -180 523 -180 955 1 431 44 841 126 1178 40 167 122 416 170 521 19 41 34 75 34 77 0 9 -53 1 -180 -25z" />
  </g>
</svg>
